<svg width="1024" height="1024" viewBox="0 0 1024 1024" fill="none" xmlns="http://www.w3.org/2000/svg">
<path d="M420 262H394C387.373 262 382 267.373 382 274V300C382 306.627 387.373 312 394 312H420C426.627 312 432 306.627 432 300V274C432 267.373 426.627 262 420 262Z" fill="#52525B"/>
<path d="M490 262H464C457.373 262 452 267.373 452 274V300C452 306.627 457.373 312 464 312H490C496.627 312 502 306.627 502 300V274C502 267.373 496.627 262 490 262Z" fill="#3F3F46"/>
<path d="M560 262H534C527.373 262 522 267.373 522 274V300C522 306.627 527.373 312 534 312H560C566.627 312 572 306.627 572 300V274C572 267.373 566.627 262 560 262Z" fill="#64748B"/>
<path d="M630 262H604C597.373 262 592 267.373 592 274V300C592 306.627 597.373 312 604 312H630C636.627 312 642 306.627 642 300V274C642 267.373 636.627 262 630 262Z" fill="#71717A"/>
<path d="M420 332H394C387.373 332 382 337.373 382 344V370C382 376.627 387.373 382 394 382H420C426.627 382 432 376.627 432 370V344C432 337.373 426.627 332 420 332Z" fill="#71717A"/>
<path d="M490 332H464C457.373 332 452 337.373 452 344V370C452 376.627 457.373 382 464 382H490C496.627 382 502 376.627 502 370V344C502 337.373 496.627 332 490 332Z" fill="#A1A1AA"/>
<path d="M560 332H534C527.373 332 522 337.373 522 344V370C522 376.627 527.373 382 534 382H560C566.627 382 572 376.627 572 370V344C572 337.373 566.627 332 560 332Z" fill="#52525B"/>
<path d="M630 332H604C597.373 332 592 337.373 592 344V370C592 376.627 597.373 382 604 382H630C636.627 382 642 376.627 642 370V344C642 337.373 636.627 332 630 332Z" fill="#3F3F46"/>
<path d="M420 402H394C387.373 402 382 407.373 382 414V440C382 446.627 387.373 452 394 452H420C426.627 452 432 446.627 432 440V414C432 407.373 426.627 402 420 402Z" fill="#3F3F46"/>
<path d="M490 402H464C457.373 402 452 407.373 452 414V440C452 446.627 457.373 452 464 452H490C496.627 452 502 446.627 502 440V414C502 407.373 496.627 402 490 402Z" fill="#64748B"/>
<path d="M560 402H534C527.373 402 522 407.373 522 414V440C522 446.627 527.373 452 534 452H560C566.627 452 572 446.627 572 440V414C572 407.373 566.627 402 560 402Z" fill="#71717A"/>
<path d="M630 402H604C597.373 402 592 407.373 592 414V440C592 446.627 597.373 452 604 452H630C636.627 452 642 446.627 642 440V414C642 407.373 636.627 402 630 402Z" fill="#A1A1AA"/>
<path d="M420 472H394C387.373 472 382 477.373 382 484V510C382 516.627 387.373 522 394 522H420C426.627 522 432 516.627 432 510V484C432 477.373 426.627 472 420 472Z" fill="#A1A1AA"/>
<path d="M490 472H464C457.373 472 452 477.373 452 484V510C452 516.627 457.373 522 464 522H490C496.627 522 502 516.627 502 510V484C502 477.373 496.627 472 490 472Z" fill="#52525B"/>
<path d="M560 472H534C527.373 472 522 477.373 522 484V510C522 516.627 527.373 522 534 522H560C566.627 522 572 516.627 572 510V484C572 477.373 566.627 472 560 472Z" fill="#3F3F46"/>
<path d="M630 472H604C597.373 472 592 477.373 592 484V510C592 516.627 597.373 522 604 522H630C636.627 522 642 516.627 642 510V484C642 477.373 636.627 472 630 472Z" fill="#64748B"/>
<path d="M420 542H394C387.373 542 382 547.373 382 554V580C382 586.627 387.373 592 394 592H420C426.627 592 432 586.627 432 580V554C432 547.373 426.627 542 420 542Z" fill="#64748B"/>
<path d="M490 542H464C457.373 542 452 547.373 452 554V580C452 586.627 457.373 592 464 592H490C496.627 592 502 586.627 502 580V554C502 547.373 496.627 542 490 542Z" fill="#71717A"/>
<path d="M560 542H534C527.373 542 522 547.373 522 554V580C522 586.627 527.373 592 534 592H560C566.627 592 572 586.627 572 580V554C572 547.373 566.627 542 560 542Z" fill="#A1A1AA"/>
<path d="M630 542H604C597.373 542 592 547.373 592 554V580C592 586.627 597.373 592 604 592H630C636.627 592 642 586.627 642 580V554C642 547.373 636.627 542 630 542Z" fill="#52525B"/>
<path d="M420 612H394C387.373 612 382 617.373 382 624V650C382 656.627 387.373 662 394 662H420C426.627 662 432 656.627 432 650V624C432 617.373 426.627 612 420 612Z" fill="#52525B"/>
<path d="M490 612H464C457.373 612 452 617.373 452 624V650C452 656.627 457.373 662 464 662H490C496.627 662 502 656.627 502 650V624C502 617.373 496.627 612 490 612Z" fill="#3F3F46"/>
<path d="M560 612H534C527.373 612 522 617.373 522 624V650C522 656.627 527.373 662 534 662H560C566.627 662 572 656.627 572 650V624C572 617.373 566.627 612 560 612Z" fill="#64748B"/>
<path d="M630 612H604C597.373 612 592 617.373 592 624V650C592 656.627 597.373 662 604 662H630C636.627 662 642 656.627 642 650V624C642 617.373 636.627 612 630 612Z" fill="#71717A"/>
<path d="M422.522 766H397.478C391.139 766 386 771.139 386 777.478V802.522C386 808.861 391.139 814 397.478 814H422.522C428.861 814 434 808.861 434 802.522V777.478C434 771.139 428.861 766 422.522 766Z" fill="#71717A"/>
<path d="M490.522 766H465.478C459.139 766 454 771.139 454 777.478V802.522C454 808.861 459.139 814 465.478 814H490.522C496.861 814 502 808.861 502 802.522V777.478C502 771.139 496.861 766 490.522 766Z" fill="#3F3F46"/>
<path d="M558.522 766H533.478C527.139 766 522 771.139 522 777.478V802.522C522 808.861 527.139 814 533.478 814H558.522C564.861 814 570 808.861 570 802.522V777.478C570 771.139 564.861 766 558.522 766Z" fill="#A1A1AA"/>
<path d="M626.522 766H601.478C595.139 766 590 771.139 590 777.478V802.522C590 808.861 595.139 814 601.478 814H626.522C632.861 814 638 808.861 638 802.522V777.478C638 771.139 632.861 766 626.522 766Z" fill="#64748B"/>
</svg>
