<svg width="1024" height="1024" viewBox="0 0 1024 1024" fill="none" xmlns="http://www.w3.org/2000/svg">
<path d="M628 836V868H396V836H628ZM660 804V220C660 202.327 645.673 188 628 188H396C378.327 188 364 202.327 364 220V804C364 821.673 378.327 836 396 836V868C360.654 868 332 839.346 332 804V220C332 184.654 360.654 156 396 156H628C663.346 156 692 184.654 692 220V804C692 839.346 663.346 868 628 868V836C645.673 836 660 821.673 660 804Z" fill="#1C1C1E"/>
<path d="M544 198H480C472.82 198 467 203.82 467 211C467 218.18 472.82 224 480 224H544C551.18 224 557 218.18 557 211C557 203.82 551.18 198 544 198Z" fill="#1C1C1E"/>
</svg>
