<svg xmlns="http://www.w3.org/2000/svg" viewBox="0 0 1024 1024" width="1024" height="1024">
  
  

  
  <rect x="332" y="156" width="360" height="712" rx="64" fill="#FFFFFF" fill-opacity="0.30"></rect>
  
  <rect x="467" y="198" width="90" height="26" rx="13" fill="#FFFFFF" fill-opacity="0.60"></rect>

  
  <rect x="382" y="262" width="50" height="50" rx="12" fill="#FFFFFF" fill-opacity="0.95"></rect>
  <rect x="452" y="262" width="50" height="50" rx="12" fill="#FFFFFF" fill-opacity="0.95"></rect>
  <rect x="522" y="262" width="50" height="50" rx="12" fill="#FFFFFF" fill-opacity="0.95"></rect>
  <rect x="592" y="262" width="50" height="50" rx="12" fill="#FFFFFF" fill-opacity="0.95"></rect>
  <rect x="382" y="332" width="50" height="50" rx="12" fill="#FFFFFF" fill-opacity="0.95"></rect>
  <rect x="452" y="332" width="50" height="50" rx="12" fill="#FFFFFF" fill-opacity="0.95"></rect>
  <rect x="522" y="332" width="50" height="50" rx="12" fill="#FFFFFF" fill-opacity="0.95"></rect>
  <rect x="592" y="332" width="50" height="50" rx="12" fill="#FFFFFF" fill-opacity="0.95"></rect>
  <rect x="382" y="402" width="50" height="50" rx="12" fill="#FFFFFF" fill-opacity="0.95"></rect>
  <rect x="452" y="402" width="50" height="50" rx="12" fill="#FFFFFF" fill-opacity="0.95"></rect>
  <rect x="522" y="402" width="50" height="50" rx="12" fill="#FFFFFF" fill-opacity="0.95"></rect>
  <rect x="592" y="402" width="50" height="50" rx="12" fill="#FFFFFF" fill-opacity="0.95"></rect>
  <rect x="382" y="472" width="50" height="50" rx="12" fill="#FFFFFF" fill-opacity="0.95"></rect>
  <rect x="452" y="472" width="50" height="50" rx="12" fill="#FFFFFF" fill-opacity="0.95"></rect>
  <rect x="522" y="472" width="50" height="50" rx="12" fill="#FFFFFF" fill-opacity="0.95"></rect>
  <rect x="592" y="472" width="50" height="50" rx="12" fill="#FFFFFF" fill-opacity="0.95"></rect>
  <rect x="382" y="542" width="50" height="50" rx="12" fill="#FFFFFF" fill-opacity="0.95"></rect>
  <rect x="452" y="542" width="50" height="50" rx="12" fill="#FFFFFF" fill-opacity="0.95"></rect>
  <rect x="522" y="542" width="50" height="50" rx="12" fill="#FFFFFF" fill-opacity="0.95"></rect>
  <rect x="592" y="542" width="50" height="50" rx="12" fill="#FFFFFF" fill-opacity="0.95"></rect>
  <rect x="382" y="612" width="50" height="50" rx="12" fill="#FFFFFF" fill-opacity="0.95"></rect>
  <rect x="452" y="612" width="50" height="50" rx="12" fill="#FFFFFF" fill-opacity="0.95"></rect>
  <rect x="522" y="612" width="50" height="50" rx="12" fill="#FFFFFF" fill-opacity="0.95"></rect>
  <rect x="592" y="612" width="50" height="50" rx="12" fill="#FFFFFF" fill-opacity="0.95"></rect>

  
  <rect x="378" y="752" width="268" height="80" rx="30" fill="#FFFFFF" fill-opacity="0.42"></rect>
  <rect x="396" y="768" width="46" height="46" rx="11" fill="#FFFFFF" fill-opacity="0.95"></rect>
  <rect x="456" y="768" width="46" height="46" rx="11" fill="#FFFFFF" fill-opacity="0.95"></rect>
  <rect x="516" y="768" width="46" height="46" rx="11" fill="#FFFFFF" fill-opacity="0.95"></rect>
  <rect x="576" y="768" width="46" height="46" rx="11" fill="#FFFFFF" fill-opacity="0.95"></rect>

  
  <rect x="-38" y="443" width="1100" height="138" rx="69" fill="#FFFFFF" transform="rotate(-45 512 512)"></rect>
</svg>