<svg xmlns="http://www.w3.org/2000/svg" viewBox="0 0 1024 1024" width="1024" height="1024">
  <defs>
    <linearGradient id="bg_dark" x1="0" y1="0" x2="1" y2="1">
      <stop offset="0" stop-color="#27272A"></stop>
      <stop offset="1" stop-color="#09090B"></stop>
    </linearGradient>
    <linearGradient id="screen_dark" x1="0" y1="0" x2="0" y2="1">
      <stop offset="0" stop-color="#1C1C22"></stop>
      <stop offset="1" stop-color="#0E0E12"></stop>
    </linearGradient>
    <linearGradient id="slash_dark" x1="0" y1="0" x2="1" y2="1">
      <stop offset="0" stop-color="#FFFFFF"></stop>
      <stop offset="1" stop-color="#E5E5E5"></stop>
    </linearGradient>
  </defs>

  
  <rect width="1024" height="1024" fill="url(#bg_dark)"></rect>

  
  <rect x="332" y="156" width="360" height="712" rx="64" fill="#FAFAFA"></rect>
  <rect x="354" y="178" width="316" height="668" rx="46" fill="url(#screen_dark)"></rect>
  
  <rect x="467" y="198" width="90" height="26" rx="13" fill="#000000"></rect>

  
  <rect x="382" y="262" width="50" height="50" rx="12" fill="#52525B"></rect>
      <rect x="452" y="262" width="50" height="50" rx="12" fill="#3F3F46"></rect>
      <rect x="522" y="262" width="50" height="50" rx="12" fill="#64748B"></rect>
      <rect x="592" y="262" width="50" height="50" rx="12" fill="#71717A"></rect>
      <rect x="382" y="332" width="50" height="50" rx="12" fill="#71717A"></rect>
      <rect x="452" y="332" width="50" height="50" rx="12" fill="#A1A1AA"></rect>
      <rect x="522" y="332" width="50" height="50" rx="12" fill="#52525B"></rect>
      <rect x="592" y="332" width="50" height="50" rx="12" fill="#3F3F46"></rect>
      <rect x="382" y="402" width="50" height="50" rx="12" fill="#3F3F46"></rect>
      <rect x="452" y="402" width="50" height="50" rx="12" fill="#64748B"></rect>
      <rect x="522" y="402" width="50" height="50" rx="12" fill="#71717A"></rect>
      <rect x="592" y="402" width="50" height="50" rx="12" fill="#A1A1AA"></rect>
      <rect x="382" y="472" width="50" height="50" rx="12" fill="#A1A1AA"></rect>
      <rect x="452" y="472" width="50" height="50" rx="12" fill="#52525B"></rect>
      <rect x="522" y="472" width="50" height="50" rx="12" fill="#3F3F46"></rect>
      <rect x="592" y="472" width="50" height="50" rx="12" fill="#64748B"></rect>
      <rect x="382" y="542" width="50" height="50" rx="12" fill="#64748B"></rect>
      <rect x="452" y="542" width="50" height="50" rx="12" fill="#71717A"></rect>
      <rect x="522" y="542" width="50" height="50" rx="12" fill="#A1A1AA"></rect>
      <rect x="592" y="542" width="50" height="50" rx="12" fill="#52525B"></rect>
      <rect x="382" y="612" width="50" height="50" rx="12" fill="#52525B"></rect>
      <rect x="452" y="612" width="50" height="50" rx="12" fill="#3F3F46"></rect>
      <rect x="522" y="612" width="50" height="50" rx="12" fill="#64748B"></rect>
      <rect x="592" y="612" width="50" height="50" rx="12" fill="#71717A"></rect>

  
  <rect x="378" y="752" width="268" height="80" rx="30" fill="rgba(255,255,255,0.10)"></rect>
  <rect x="396" y="768" width="46" height="46" rx="11" fill="#71717A"></rect>
      <rect x="456" y="768" width="46" height="46" rx="11" fill="#3F3F46"></rect>
      <rect x="516" y="768" width="46" height="46" rx="11" fill="#A1A1AA"></rect>
      <rect x="576" y="768" width="46" height="46" rx="11" fill="#64748B"></rect>

  
  <rect x="-38" y="437" width="1100" height="150" rx="75" fill="rgba(0,0,0,0.24)" transform="rotate(-45 512 512)"></rect>
  <rect x="-38" y="443" width="1100" height="138" rx="69" fill="url(#slash_dark)" transform="rotate(-45 512 512)"></rect>
</svg>